<svg id="shDgGGs5S" viewBox="0 0 300 214.73977443607671" height="214.73977443607671" width="300" style="width: 300px; height: 214.74px; position: absolute; top: 50%; left: 50%; z-index: 0; cursor: pointer; overflow: visible; transform: translate(-50%, -50%) scale(0.609109);"><defs id="SvgjsDefs1022"></defs><g id="SvgjsG1023" featurekey="pxMwYC-0" transform="matrix(0.8000162763728104,0,0,0.8000162763728104,70.10905271510244,-26.060527761388375)" fill="#4ecca3"><g xmlns="http://www.w3.org/2000/svg"><path d="M169.2,93.6c-8.4-5.8-16.7-12-25.3-17.9c-8.6-5.9-17.4-11.7-27.2-16.1c-4-1.8-8.3-3.4-12.9-4.1c-1.1-0.2-2.4-0.3-3.6-0.4   c-1.2,0-2.5,0-3.7,0.1c-2.4,0.3-4.7,0.8-6.9,1.5c-4.4,1.4-8.3,3.3-12.2,5.4c-3.8,2.1-7.5,4.4-11,6.8c-7.1,4.8-13.8,10-20.5,15.3   c-6.7,5.2-13.1,10.7-20,15.5v0c-1.8,1.2-1.1,2.6,0.9,1.5l0,0c7.4-4.2,14.4-9,21.4-13.8c7-4.7,14-9.5,21.1-13.8   c3.6-2.2,7.2-4.2,10.9-6.1c3.7-1.8,7.4-3.5,11.2-4.6c1.9-0.6,3.8-0.9,5.6-1.1c0.9-0.1,1.8-0.1,2.7-0.1c0.9,0.1,1.8,0.1,2.8,0.4   c3.7,0.6,7.5,2.1,11.2,3.7c9.1,4.1,17.7,9.7,26.1,15.5c8.5,5.8,16.7,12,25.4,17.9c4.1,2.8,8.5,3.6,9.4,2   C175.7,99.6,173.2,96.4,169.2,93.6z"></path><path d="M156.6,157.9c1.7-11.9,2.6-23.8,2.6-35.7v-21.8c0-1.7-1.5-3.1-3.4-3.1h0c-1.9,0-3.4,1.4-3.4,3.1v21.8   c0,11.9,0.9,23.8,2.6,35.7C154.9,158.6,156.5,158.6,156.6,157.9z"></path><path d="M45.1,157.9c1.7-11.9,2.6-23.8,2.6-35.7v-21.8c0-1.7-1.5-3.1-3.4-3.1c-1.9,0-3.4,1.4-3.4,3.1v21.8   c0,11.9,0.9,23.8,2.6,35.7C43.4,158.6,45,158.6,45.1,157.9z"></path><path d="M167.1,162.8h-53.3c-29.2,0-58.3,0.6-87.3,1.7h0c-1.9,0.1-1.9,1.1,0,1.2h0c29,1.1,58.1,1.7,87.3,1.7h53.3   c4.2,0,7.7-1,7.7-2.3C174.8,163.8,171.4,162.8,167.1,162.8z"></path><path d="M130.9,62.4c0.2,0.4,1.2,0.2,1.1-0.2c-0.1-1.5,0-3,0.4-4.2c0.4-1.3,1.1-2,2-2.3c0.9-0.3,2.1-0.4,3.4-0.2   c0.6,0.1,1.3,0.2,2,0.4c0.1,0,0.4,0.1,0.4,0.1c0,0,0,0,0,0c0,0,0,0,0,0c0,0,0,0,0,0.1l0.3,5.6c0.1,1.9,0.1,3.8-0.1,5.6   c-0.1,0.8,0.7,1.7,2,2c1.2,0.3,2.4-0.3,2.6-1.4c0.3-2.2,0.2-4.3,0.1-6.4l-0.2-3l-0.1-1.5l0-0.7l0-1.1l-0.1-2.7l-2.2-0.5l-1.1-0.3   l-0.7-0.1c-0.8-0.1-1.7-0.2-2.5-0.2c-1.7,0-3.7,0.2-5.4,1.3c-0.9,0.5-1.6,1.4-2.1,2.3c-0.4,0.9-0.7,1.9-0.7,2.8   C129.9,59.4,130.3,61,130.9,62.4L130.9,62.4z"></path><path d="M137,46c1.3,0,2.3-0.3,2.4-0.7l0-0.3l0.1-0.2c0.1-0.2,0.1-0.3,0.2-0.5c0.2-0.3,0.3-0.6,0.6-0.8c0.5-0.5,1.4-1,2.5-1.4   c1.7-0.7,3.7-1.3,5.7-2.8c0.5-0.4,1-0.8,1.4-1.3c0.2-0.3,0.4-0.5,0.6-0.8c0.1-0.3,0.3-0.6,0.4-0.9l0.2-0.4l0.1-0.5l0.1-0.9   c0-0.6-0.1-1.2-0.2-1.7c0-0.3-1.1-0.3-1.2,0c-0.2,0.4-0.3,0.9-0.6,1.3l-0.4,0.5l-0.2,0.2l-0.2,0.2l-0.4,0.4   c-0.1,0.1-0.3,0.2-0.5,0.3c-0.3,0.2-0.7,0.3-1,0.5c-1.5,0.6-3.4,0.9-5.5,1.7c-1.2,0.5-2.6,1.1-3.9,2.2c-0.7,0.5-1.2,1.3-1.6,2.1   c-0.2,0.4-0.3,0.8-0.5,1.2l-0.2,0.6l-0.1,0.6C134.8,45.4,135.7,46.1,137,46z"></path><path d="M152.4,49.2c1.5-0.3,2.9-0.8,4.2-1.8c1.1-0.7,2-1.9,2.4-3.2c0.4-1.3,0.3-2.7-0.3-3.8v0c-0.1-0.1-1.1-0.1-1.2,0   c-0.6,0.9-1.2,1.5-1.8,2c-0.6,0.5-1.1,0.8-1.7,1.2c-0.7,0.5-1.6,0.8-2.6,1c-0.2,0-0.2,1.1-0.1,2.3   C151.6,48.3,152.1,49.3,152.4,49.2z"></path><path d="M119.6,133.4c0.1-1.9,0.1-3.9,0-5.8c-0.1-2.4-0.4-4.8-0.9-7.1c-0.5-2.4-1.3-4.7-2.5-6.9c-2.3-4.5-6.1-8-10.2-10.5   c-4.1-2.5-8.4-4.3-12.6-6c-4.2-1.7-8.4-3.3-12.5-5.1c-3.9-1.7-7.4-2.4-8-1.2l0,0c-0.3,0-0.6,0.5-0.6,1.4l0,0   c-0.4,7.4-0.3,14.9,1.3,22.4c0.8,3.7,2,7.4,3.7,10.9c1.7,3.5,4.2,6.7,7.2,9.3c3,2.6,6.6,4.5,10.4,5.7c3.8,1.2,7.7,1.8,11.5,1.9   c1.9,0.1,3.9,0.1,5.8-0.1c1,0,1.9-0.1,2.9-0.2l0.9-0.1l8.2,8.2c0.9,0.9,2.3,0.8,3.2-0.1c0.9-0.9,0.9-2.3,0.1-3.2l-8.2-8.2l0.3-2.4   L119.6,133.4z M106.4,137.9c-7.1-0.1-14.2-1.7-19.6-6.1c-2.7-2.1-4.9-4.9-6.7-7.9c-1.7-3.1-3-6.5-4-10c-1.8-6.9-2.5-14.3-2.7-21.5   c1,1.2,3,2.6,5.6,3.8c4.2,1.8,8.5,3.5,12.7,5.1c4.2,1.7,8.3,3.4,11.9,5.6c3.6,2.2,6.7,5.1,8.5,8.8c1.9,3.6,2.7,7.9,2.9,12.2   c0.1,1.8,0.1,3.6,0,5.4l-0.1,1.4c-5.4-5.3-11.1-10.3-17.2-14.8c-0.4-0.3-1.2,0.4-0.8,0.8c4.6,6.1,9.6,11.8,14.9,17.2   C110,137.9,108.2,137.9,106.4,137.9z"></path></g></g><g id="SvgjsG1024" featurekey="Vx5QiU-0" transform="matrix(4.191114282623305,0,0,4.191114282623305,-6.538137041835361,107.3797174097367)" fill="#393e46"><path d="M4.7 20 l-3.14 0 l0 -15.08 l10.08 8.92 l0 -8.44 l3.16 0 l0 15.06 l-10.1 -8.78 l0 8.32 z M26.28 18.9 q-0.38 0.52 -1.31 0.93 t-2.03 0.41 q-1.7 0 -2.95 -0.76 t-1.91 -2.07 t-0.66 -2.91 t0.66 -2.91 t1.91 -2.07 t2.95 -0.76 q1.14 0 2.01 0.39 t1.33 0.99 l0 -1.14 l2.96 0 l0 11 l-2.96 0 l0 -1.1 z M25.58 12.25 q-0.82 -0.87 -2.2 -0.87 q-1.4 0 -2.21 0.87 t-0.81 2.25 q0 1.34 0.83 2.22 t2.19 0.88 q1.4 0 2.21 -0.83 t0.81 -2.27 q0 -1.38 -0.82 -2.25 z M35.9 16.08 q0 0.7 0.24 1.17 t1.12 0.47 q0.4 0 0.76 -0.04 l0 2.52 q-0.72 0.08 -1.34 0.08 q-1.28 0 -2.07 -0.21 t-1.23 -0.81 t-0.44 -1.72 l0 -6.1 l-1.34 0 l0 -2.62 l1.34 0 l0 -2.94 l2.96 0 l0 2.94 l2.2 0 l0 2.62 l-2.2 0 l0 4.64 z M40.379999999999995 15.54 l0 -6.5 l3.02 0 l0 6.5 q0 1.18 0.59 1.69 t1.55 0.51 q0.84 0 1.5 -0.65 t0.6 -2.23 l0 -5.82 l3 0 l0 10.96 l-3 0 l0 -0.94 q-0.54 0.56 -1.31 0.87 t-1.63 0.31 q-4.32 0 -4.32 -4.7 z M58.79999999999999 11.87 q-0.86 0.21 -1.58 0.99 t-0.72 2.28 l0 4.86 l-2.98 0 l0 -11 l2.98 0 l0 1.46 q0.74 -0.98 1.81 -1.33 t1.95 -0.33 l0 2.92 q-0.6 -0.06 -1.46 0.15 z M70.17999999999999 18.9 q-0.38 0.52 -1.31 0.93 t-2.03 0.41 q-1.7 0 -2.95 -0.76 t-1.91 -2.07 t-0.66 -2.91 t0.66 -2.91 t1.91 -2.07 t2.95 -0.76 q1.14 0 2.01 0.39 t1.33 0.99 l0 -1.14 l2.96 0 l0 11 l-2.96 0 l0 -1.1 z M69.47999999999999 12.25 q-0.82 -0.87 -2.2 -0.87 q-1.4 0 -2.21 0.87 t-0.81 2.25 q0 1.34 0.83 2.22 t2.19 0.88 q1.4 0 2.21 -0.83 t0.81 -2.27 q0 -1.38 -0.82 -2.25 z"></path></g><g id="SvgjsG1025" featurekey="aAUSXE-0" transform="matrix(0.7063643315616861,0,0,0.7063643315616861,28.869817136865453,200.40057752859428)" fill="#4ecca3"><path d="M14.9 20 l-3.04 0 l-7.22 -11.22 l0 11.22 l-3.04 0 l0 -16 l3.48 0 l6.78 10.44 l0 -10.44 l3.04 0 l0 16 z M39.836 20 l-10.56 0 l0 -15.98 l10.56 0 l0 2.56 l-7.52 0 l0 3.82 l7.42 0 l0 2.5 l-7.42 0 l0 4.4 l7.52 0 l0 2.7 z M64.592 6.779999999999999 l-4.42 0 l0 13.22 l-3.14 0 l0 -13.22 l-4.42 0 l0 -2.76 l11.98 0 l0 2.76 z M107.92399999999999 4 l-7.74 12.94 l7.68 0 l0 3.06 l-13.02 0 l7.92 -13.24 l-7.62 0.02 l0 -2.78 l12.78 0 z M132.06 20 l-10.56 0 l0 -15.98 l10.56 0 l0 2.56 l-7.52 0 l0 3.82 l7.42 0 l0 2.5 l-7.42 0 l0 4.4 l7.52 0 l0 2.7 z M157.87599999999998 20 l-3.42 0 l-1.14 -3.64 q-0.18 -0.6 -0.45 -1.1 t-0.65 -0.86 t-0.91 -0.56 t-1.25 -0.2 l-1.16 0 l0 6.36 l-3.06 0 l0 -15.98 l6.32 -0.02 q1.02 0 1.9 0.35 t1.52 0.97 t1 1.46 t0.36 1.82 q0 0.7 -0.22 1.36 t-0.62 1.22 t-0.95 0.99 t-1.21 0.65 q0.76 0.28 1.24 0.81 t0.76 1.27 q0.14 0.34 0.26 0.68 t0.25 0.71 t0.28 0.8 t0.33 0.95 q0.22 0.66 0.41 1.13 t0.41 0.83 z M153.816 8.82 q0 -0.56 -0.21 -1.02 t-0.57 -0.8 t-0.85 -0.53 t-1.05 -0.19 l-2.24 0 l0 4.98 l2.24 0 q0.56 0 1.05 -0.17 t0.85 -0.49 t0.57 -0.77 t0.21 -1.01 z M187.53199999999998 12 q0 1.72 -0.67 3.24 t-1.83 2.64 t-2.7 1.77 t-3.28 0.65 t-3.29 -0.65 t-2.71 -1.77 t-1.83 -2.63 t-0.67 -3.25 t0.67 -3.26 t1.83 -2.64 t2.71 -1.76 t3.29 -0.64 t3.28 0.64 t2.7 1.77 t1.83 2.64 t0.67 3.25 z M184.41199999999998 12 q0 -1.1 -0.42 -2.07 t-1.15 -1.7 t-1.71 -1.16 t-2.08 -0.43 q-1.12 0 -2.1 0.43 t-1.71 1.16 t-1.15 1.7 t-0.42 2.07 q0 1.08 0.42 2.06 t1.15 1.71 t1.71 1.16 t2.1 0.43 q1.1 0 2.08 -0.43 t1.71 -1.16 t1.15 -1.71 t0.42 -2.06 z M231.48399999999998 20 l-3.1 0 l0 -7.08 l-6.3 0 l0 7.08 l-3.1 0 l0 -15.98 l3.1 0 l0 6.34 l6.3 0 l0 -6.34 l3.1 0 l0 15.98 z M262.24 12 q0 1.72 -0.67 3.24 t-1.83 2.64 t-2.7 1.77 t-3.28 0.65 t-3.29 -0.65 t-2.71 -1.77 t-1.83 -2.63 t-0.67 -3.25 t0.67 -3.26 t1.83 -2.64 t2.71 -1.76 t3.29 -0.64 t3.28 0.64 t2.7 1.77 t1.83 2.64 t0.67 3.25 z M259.12 12 q0 -1.1 -0.42 -2.07 t-1.15 -1.7 t-1.71 -1.16 t-2.08 -0.43 q-1.12 0 -2.1 0.43 t-1.71 1.16 t-1.15 1.7 t-0.42 2.07 q0 1.08 0.42 2.06 t1.15 1.71 t1.71 1.16 t2.1 0.43 q1.1 0 2.08 -0.43 t1.71 -1.16 t1.15 -1.71 t0.42 -2.06 z M291.976 20 l-3.04 0 l0 -10.68 l-5.04 8.5 l-4.84 -8.58 l0 10.76 l-3.04 0 l0 -16 l3.5 0 l4.44 7.94 l4.64 -7.94 l3.38 0 l0 16 z M316.91200000000003 20 l-10.56 0 l0 -15.98 l10.56 0 l0 2.56 l-7.52 0 l0 3.82 l7.42 0 l0 2.5 l-7.42 0 l0 4.4 l7.52 0 l0 2.7 z M341.368 15.8 q0 0.9 -0.39 1.71 t-1.09 1.43 t-1.66 0.99 t-2.12 0.37 q-1.04 0 -1.87 -0.12 t-1.56 -0.38 t-1.4 -0.67 t-1.39 -0.99 l2.2 -2.22 q0.96 0.8 1.88 1.13 t2 0.33 q0.44 0 0.83 -0.13 t0.68 -0.35 t0.46 -0.52 t0.17 -0.66 q0 -0.38 -0.14 -0.68 t-0.5 -0.58 t-1 -0.57 t-1.64 -0.65 q-0.88 -0.32 -1.69 -0.73 t-1.42 -0.99 t-0.98 -1.36 t-0.37 -1.84 q0 -1.02 0.41 -1.88 t1.12 -1.47 t1.66 -0.95 t2.05 -0.34 q1.84 0 3.1 0.48 t2.24 1.4 l-2.16 2.18 q-0.6 -0.58 -1.34 -0.89 t-1.74 -0.31 q-0.46 0 -0.85 0.14 t-0.67 0.37 t-0.45 0.54 t-0.17 0.65 q0 0.38 0.16 0.69 t0.54 0.6 t1.01 0.58 t1.57 0.63 q1.2 0.42 2.06 0.92 t1.4 1.1 t0.8 1.35 t0.26 1.69 z"></path></g></svg>