<svg width="216" height="90" viewBox="0 0 216 90" fill="none" xmlns="http://www.w3.org/2000/svg">
<path d="M41.1265 65.9659H30.9342L13.8876 40.0597V65.9659H3.69531V23.9656H13.8876L30.9342 49.9914V23.9656H41.1265V65.9659ZM46.488 49.2136C46.488 45.7834 47.1238 42.772 48.3953 40.1794C49.7066 37.5868 51.4751 35.5925 53.7003 34.1964C55.9255 32.8004 58.409 32.1024 61.1508 32.1024C63.4952 32.1024 65.5416 32.581 67.29 33.5383C69.0781 34.4956 70.449 35.752 71.4026 37.3076V32.581H81.5949V65.9659H71.4026V61.2394C70.4092 62.795 69.0185 64.0514 67.2304 65.0086C65.482 65.9659 63.4356 66.4446 61.0912 66.4446C58.3892 66.4446 55.9255 65.7465 53.7003 64.3505C51.4751 62.9146 49.7066 60.9004 48.3953 58.3077C47.1238 55.6752 46.488 52.6439 46.488 49.2136ZM71.4026 49.2735C71.4026 46.7207 70.6874 44.7065 69.2569 43.2307C67.8662 41.7549 66.1575 41.017 64.131 41.017C62.1045 41.017 60.3759 41.7549 58.9455 43.2307C57.5547 44.6666 56.8593 46.6609 56.8593 49.2136C56.8593 51.7664 57.5547 53.8006 58.9455 55.3163C60.3759 56.7921 62.1045 57.5299 64.131 57.5299C66.1575 57.5299 67.8662 56.7921 69.2569 55.3163C70.6874 53.8405 71.4026 51.8262 71.4026 49.2735ZM107.505 57.2906V65.9659H102.32C98.6243 65.9659 95.7434 65.0685 93.6771 63.2736C91.6109 61.4388 90.5777 58.4673 90.5777 54.359V41.0768H86.5247V32.581H90.5777V24.4442H100.77V32.581H107.446V41.0768H100.77V54.4786C100.77 55.4758 101.008 56.1938 101.485 56.6325C101.962 57.0713 102.757 57.2906 103.869 57.2906H107.505ZM146.024 32.581V65.9659H135.832V61.4189C134.799 62.8947 133.388 64.0913 131.6 65.0086C129.852 65.8861 127.904 66.3249 125.759 66.3249C123.216 66.3249 120.971 65.7665 119.024 64.6497C117.076 63.493 115.566 61.8377 114.494 59.6838C113.421 57.5299 112.884 54.9972 112.884 52.0855V32.581H123.017V50.7094C123.017 52.943 123.593 54.6781 124.745 55.9146C125.898 57.151 127.448 57.7693 129.395 57.7693C131.381 57.7693 132.951 57.151 134.103 55.9146C135.256 54.6781 135.832 52.943 135.832 50.7094V32.581H146.024ZM163.537 38.1452C164.729 36.3104 166.22 34.8745 168.008 33.8374C169.796 32.7605 171.783 32.2221 173.968 32.2221V43.0512H171.167C168.624 43.0512 166.716 43.6096 165.445 44.7264C164.173 45.8034 163.537 47.7179 163.537 50.4701V65.9659H153.345V32.581H163.537V38.1452ZM176.813 49.2136C176.813 45.7834 177.449 42.772 178.721 40.1794C180.032 37.5868 181.8 35.5925 184.025 34.1964C186.25 32.8004 188.734 32.1024 191.476 32.1024C193.82 32.1024 195.867 32.581 197.615 33.5383C199.403 34.4956 200.774 35.752 201.728 37.3076V32.581H211.92V65.9659H201.728V61.2394C200.734 62.795 199.343 64.0514 197.555 65.0086C195.807 65.9659 193.761 66.4446 191.416 66.4446C188.714 66.4446 186.25 65.7465 184.025 64.3505C181.8 62.9146 180.032 60.9004 178.721 58.3077C177.449 55.6752 176.813 52.6439 176.813 49.2136ZM201.728 49.2735C201.728 46.7207 201.012 44.7065 199.582 43.2307C198.191 41.7549 196.482 41.017 194.456 41.017C192.429 41.017 190.701 41.7549 189.27 43.2307C187.88 44.6666 187.184 46.6609 187.184 49.2136C187.184 51.7664 187.88 53.8006 189.27 55.3163C190.701 56.7921 192.429 57.5299 194.456 57.5299C196.482 57.5299 198.191 56.7921 199.582 55.3163C201.012 53.8405 201.728 51.8262 201.728 49.2735Z" fill="#064E3B"/>
<path d="M215.491 72.1023H0V75.1705H215.491V72.1023Z" fill="#FCBF01"/>
</svg>
